<?xml version="1.0" encoding="UTF-8" standalone="no"?>
<svg width="156px" height="156px" viewBox="0 0 156 156" version="1.1" xmlns="http://www.w3.org/2000/svg" xmlns:xlink="http://www.w3.org/1999/xlink">
    <!-- Generator: Sketch 3.8.3 (29802) - http://www.bohemiancoding.com/sketch -->
    <title>Page 1</title>
    <desc>Created with Sketch.</desc>
    <defs></defs>
    <g id="Page-1" stroke="none" stroke-width="1" fill="none" fill-rule="evenodd">
        <g>
            <path d="M64.763,66.5927 C64.433,65.4827 64.188,64.3687 64.001,63.3207 C66.894,60.4017 68.476,56.5407 69.324,52.4647 C70.285,51.9107 71.843,51.0397 72.072,47.0087 C72.33,42.4617 71.63,41.1187 69.957,41.1997 C70.172,40.0227 70.189,37.7867 70.173,35.3887 C70.154,32.8527 70.035,30.1357 69.011,28.2967 C67.738,26.0117 65.951,24.6717 62.464,25.4967 C59.412,24.0297 56.451,22.4537 51.072,23.6427 C45.01,24.9837 42.869,27.1047 42.09,28.2967 C40.946,30.0457 40.826,32.7387 40.837,35.2787 C40.848,37.7167 40.788,40.0137 41.004,41.1997 C39.331,41.1187 38.63,42.4617 38.888,47.0087 C39.117,51.0397 40.727,51.9107 41.687,52.4647 C42.535,56.5397 44.015,60.3997 46.906,63.3177 C46.909,63.3047 46.913,63.2907 46.915,63.2787 L46.909,63.3207 C46.909,63.3207 46.907,63.3187 46.906,63.3177 C46.729,64.3667 46.507,65.4787 46.22,66.5847 C42.238,67.9827 32.469,71.6227 29.609,74.6397 C29.146,75.1277 28.712,75.7937 28.305,76.5767 C34.614,84.6847 44.435,89.9297 55.48,89.9297 C66.525,89.9297 76.347,84.6837 82.655,76.5767 C82.249,75.7937 81.815,75.1277 81.352,74.6397 C78.497,71.6287 68.759,67.9967 64.763,66.5927" id="Fill-1" fill="#10529C"></path>
            <path d="M152.612,132.9969 L105.966,89.5179 C99.537,95.2949 94.234,97.4579 92.879,97.9399 C92.101,98.2159 91.64,98.0329 91.483,97.6929 C92.384,96.9149 98.467,90.9009 101.935,85.7599 C107.753,77.1349 110.961,66.6609 110.961,55.4809 C110.961,24.8399 86.121,-0.0001 55.48,-0.0001 C24.839,-0.0001 0,24.8399 0,55.4809 C0,86.1219 24.839,110.9609 55.48,110.9609 C66.661,110.9609 77.049,107.6249 85.76,101.9349 L132.997,152.6119 C136.221,155.8359 141.303,156.2679 144.99,153.5859 C147.765,151.5679 149.021,151.2679 153.586,144.9909 C156.268,141.3029 155.836,136.2209 152.612,132.9969 M55.48,95.4779 C33.426,95.4779 15.483,77.5349 15.483,55.4809 C15.483,33.4259 33.426,15.4829 55.48,15.4829 C77.535,15.4829 95.478,33.4259 95.478,55.4809 C95.478,77.5349 77.535,95.4779 55.48,95.4779" id="Fill-3" fill="#8BD1F3"></path>
        </g>
    </g>
</svg>