<?xml version="1.0" encoding="UTF-8" standalone="no"?>
<svg width="154px" height="160px" viewBox="0 0 154 160" version="1.1" xmlns="http://www.w3.org/2000/svg" xmlns:xlink="http://www.w3.org/1999/xlink">
    <!-- Generator: Sketch 3.8.3 (29802) - http://www.bohemiancoding.com/sketch -->
    <title>Page 1</title>
    <desc>Created with Sketch.</desc>
    <defs></defs>
    <g id="Page-1" stroke="none" stroke-width="1" fill="none" fill-rule="evenodd">
        <g>
            <path d="M54.7337,119.6603 C53.5717,126.0303 64.9887,127.0663 65.4607,121.0643 C65.7517,117.3643 65.9797,112.5863 68.3527,105.6433 C91.2967,112.8453 113.8827,83.8653 107.8097,55.9503 C107.4057,54.0943 105.1537,53.3303 103.6737,54.5203 C78.7347,74.5673 66.9747,59.1623 54.7837,75.5673 C50.5477,81.2683 50.0967,89.5693 54.2337,96.0703 C61.8507,87.7333 70.0657,82.1803 75.8747,79.0953 C76.8477,78.5783 77.3607,79.0573 77.5257,79.2843 C63.8597,92.4393 58.1427,101.4303 54.7337,119.6603" id="Fill-1" fill="#8BC34A"></path>
            <path d="M23.6372,88.3815 C23.6372,58.4665 47.9762,34.1265 77.8922,34.1265 C78.9662,34.1265 80.0272,34.1845 81.0862,34.2475 L75.4982,44.0315 C72.9302,48.5145 78.4772,53.2245 82.4862,50.0665 L108.8942,29.2985 C111.2822,27.4215 111.2892,23.8005 108.9082,21.9145 L82.5782,1.0475 C78.5522,-2.1495 73.0262,2.5805 75.5682,7.0555 L81.1382,16.8655 C80.0592,16.8165 78.9832,16.7575 77.8922,16.7575 C40.5762,16.7575 9.8512,45.4465 6.5742,81.9235 L23.6632,88.9065 C23.6622,88.7305 23.6372,88.5585 23.6372,88.3815" id="Fill-3" fill="#E8D4B0"></path>
            <path d="M77.892,142.6362 C56.622,142.6362 38.229,130.3052 29.352,112.4372 L40.823,112.3832 C45.989,112.3652 47.295,105.2072 42.555,103.3142 L11.365,90.8272 C8.546,89.6982 5.407,91.5032 4.965,94.5072 L0.058,127.7432 C-0.698,132.8292 6.161,135.2492 8.767,130.8102 L14.357,121.2852 C26.297,144.2522 50.265,160.0052 77.892,160.0052 C88.691,160.0052 98.932,157.5892 108.123,153.2912 L105.617,134.9322 C97.491,139.7902 88.029,142.6362 77.892,142.6362" id="Fill-5" fill="#E8D4B0"></path>
            <path d="M149.3412,126.7849 L138.3482,126.7059 C145.4062,115.6149 149.5152,102.4739 149.5152,88.3819 C149.5152,64.1239 137.3822,42.6589 118.8782,29.6959 L104.2732,41.0139 C120.8802,50.3009 132.1472,68.0419 132.1472,88.3819 C132.1472,99.3829 128.7872,109.5759 123.1252,118.1249 L117.3552,108.2369 C114.7572,103.7719 107.9012,106.2029 108.6352,111.2709 L113.4162,144.5259 C113.8472,147.5309 116.9802,149.3479 119.8022,148.2289 L151.0392,135.8599 C155.8222,133.9719 154.4882,126.8219 149.3412,126.7849" id="Fill-8" fill="#E8D4B0"></path>
        </g>
    </g>
</svg>