<?xml version="1.0" encoding="UTF-8" standalone="no"?>
<svg width="162px" height="156px" viewBox="0 0 162 156" version="1.1" xmlns="http://www.w3.org/2000/svg" xmlns:xlink="http://www.w3.org/1999/xlink">
    <!-- Generator: Sketch 3.8.3 (29802) - http://www.bohemiancoding.com/sketch -->
    <title>Page 1</title>
    <desc>Created with Sketch.</desc>
    <defs></defs>
    <g id="Page-1" stroke="none" stroke-width="1" fill="none" fill-rule="evenodd">
        <g>
            <path d="M78.2956,24.5282 L82.7956,24.5282 C85.2366,24.5282 87.1356,22.4102 86.8666,19.9892 L85.0886,4.0222 C84.8336,1.7322 82.8946,0.0002 80.5866,0.0002 L80.5046,0.0002 C78.1966,0.0002 76.2576,1.7322 76.0026,4.0222 L74.2256,19.9892 C73.9556,22.4102 75.8546,24.5282 78.2956,24.5282" id="Fill-1" fill="#FF9911"></path>
            <path d="M33.2819,42.1432 C34.8069,44.0462 37.6499,44.2032 39.3759,42.4802 L42.5579,39.3042 C44.2839,37.5812 44.1269,34.7432 42.2209,33.2212 L29.6529,23.1852 C27.8509,21.7462 25.2529,21.8902 23.6199,23.5192 L23.5629,23.5772 C21.9299,25.2062 21.7859,27.8002 23.2279,29.5992 L33.2819,42.1432 Z" id="Fill-3" fill="#FF9911"></path>
            <path d="M127.8094,118.6526 C126.2844,116.7496 123.4414,116.5926 121.7154,118.3156 L118.5334,121.4916 C116.8074,123.2146 116.9644,126.0526 118.8704,127.5746 L131.4384,137.6106 C133.2404,139.0496 135.8384,138.9056 137.4714,137.2766 L137.5284,137.2186 C139.1614,135.5896 139.3054,132.9956 137.8634,131.1966 L127.8094,118.6526 Z" id="Fill-5" fill="#FF9911"></path>
            <path d="M24.5732,82.6438 L24.5732,78.1518 C24.5732,75.7158 22.4512,73.8198 20.0252,74.0888 L4.0292,75.8628 C1.7352,76.1178 0.0002,78.0528 0.0002,80.3568 L0.0002,80.4388 C0.0002,82.7428 1.7352,84.6778 4.0292,84.9328 L20.0252,86.7068 C22.4512,86.9758 24.5732,85.0798 24.5732,82.6438" id="Fill-7" fill="#FF9911"></path>
            <path d="M157.0617,75.8627 L141.0657,74.0887 C138.6397,73.8197 136.5177,75.7157 136.5177,78.1517 L136.5177,82.6437 C136.5177,85.0797 138.6397,86.9757 141.0657,86.7067 L157.0617,84.9327 C159.3557,84.6777 161.0917,82.7427 161.0917,80.4387 L161.0917,80.3567 C161.0917,78.0527 159.3557,76.1177 157.0617,75.8627" id="Fill-9" fill="#FF9911"></path>
            <path d="M39.3761,118.3159 C37.6501,116.5929 34.8071,116.7499 33.2821,118.6529 L23.2281,131.1969 C21.7861,132.9959 21.9301,135.5899 23.5621,137.2189 L23.6201,137.2759 C25.2521,138.9059 27.8511,139.0499 29.6531,137.6099 L42.2211,127.5749 C44.1271,126.0529 44.2841,123.2149 42.5581,121.4919 L39.3761,118.3159 Z" id="Fill-12" fill="#FF9911"></path>
            <path d="M121.7153,42.4798 C123.4413,44.2028 126.2843,44.0458 127.8093,42.1428 L137.8633,29.5988 C139.3053,27.7998 139.1613,25.2058 137.5293,23.5768 L137.4713,23.5188 C135.8393,21.8898 133.2403,21.7458 131.4383,23.1858 L118.8703,33.2208 C116.9643,34.7428 116.8073,37.5808 118.5333,39.3038 L121.7153,42.4798 Z" id="Fill-14" fill="#FF9911"></path>
            <path d="M122.8663,80.3979 C122.8663,57.0679 103.9183,38.1549 80.5453,38.1549 C57.1723,38.1549 38.2253,57.0679 38.2253,80.3979 C38.2253,97.3939 48.3023,112.0049 62.7983,118.7089 L62.7983,142.0029 C62.7983,144.3999 64.3613,146.5159 66.6583,147.2159 L70.9893,148.5369 L70.9893,152.6199 C70.9893,154.1249 72.2113,155.3449 73.7193,155.3449 L87.3713,155.3449 C88.8793,155.3449 90.1023,154.1249 90.1023,152.6199 L90.1023,148.5329 L94.4213,147.2159 C96.7173,146.5159 98.2933,144.3999 98.2933,142.0029 L98.2933,118.7089 C112.7883,112.0049 122.8663,97.3939 122.8663,80.3979 M103.9213,64.3419 C99.5143,61.5749 94.3143,59.9579 88.7233,59.9579 C72.8893,59.9579 60.0543,72.7699 60.0543,88.5739 C60.0543,93.9259 61.5583,98.9109 64.1253,103.1899 L64.1043,103.1819 C64.1043,103.1819 63.8763,103.7479 63.0183,103.4159 C60.1863,102.3209 51.2703,93.4579 51.2703,80.3979 C51.2703,64.2599 64.3773,51.1759 80.5453,51.1759 C94.0063,51.1759 102.9853,60.6179 104.1373,63.3649 C104.4293,64.0589 104.0663,64.2809 103.9213,64.3419" id="Fill-16" fill="#FFD945"></path>
        </g>
    </g>
</svg>