<svg xmlns="http://www.w3.org/2000/svg" viewBox="0 0 35 35"><style>.st0{fill:#1565C0;} .st1{fill:#FFFFFF;}</style><g id="background"><path id="Shape" class="st0" d="M29.4 0C32.5 0 35 2.5 35 5.6v23.8c0 3.1-2.5 5.6-5.6 5.6H5.6C2.5 35 0 32.5 0 29.4V5.6C0 2.5 2.5 0 5.6 0"/></g><g id="lines"><path id="Shape_1_" class="st1" d="M9 9c1.2-1.2 3.1-1.2 4.2 0l6.8 6.8 1.3-1.3-6.8-6.8c-1.9-1.9-4.9-1.9-6.8 0s-1.9 4.9 0 6.8L9 15.9l1.3-1.3L9 13.2C7.8 12 7.8 10.1 9 9"/><path id="Shape_2_" class="st1" d="M26 26c-1.2 1.2-3.1 1.2-4.2 0L15 19.2l-1.3 1.3 6.8 6.8c1.9 1.9 4.9 1.9 6.8 0 1.9-1.9 1.9-4.9 0-6.8L26 19.1l-1.3 1.3 1.4 1.4c1.1 1.2 1.1 3.1-.1 4.2"/><path id="Shape_3_" class="st1" d="M26 9c1.2 1.2 1.2 3.1 0 4.2L19.2 20l1.3 1.3 6.8-6.8c1.9-1.9 1.9-4.9 0-6.8-1.9-1.9-4.9-1.9-6.8 0L19.1 9l1.3 1.3L21.8 9C23 7.8 24.9 7.8 26 9"/><path id="Shape_4_" class="st1" d="M9 26c-1.2-1.2-1.2-3.1 0-4.2l6.8-6.8-1.3-1.3-6.8 6.8c-1.9 1.9-1.9 4.9 0 6.8 1.9 1.9 4.9 1.9 6.8 0l1.4-1.4-1.3-1.3-1.4 1.4c-1.2 1.2-3.1 1.2-4.2 0"/></g></svg>