<?xml version="1.0" encoding="UTF-8" standalone="no"?>
<svg width="122px" height="35px" viewBox="0 0 122 35" version="1.1" xmlns="http://www.w3.org/2000/svg" xmlns:xlink="http://www.w3.org/1999/xlink">
    <!-- Generator: Sketch 3.8.3 (29802) - http://www.bohemiancoding.com/sketch -->
    <title>logo</title>
    <desc>Created with Sketch.</desc>
    <defs></defs>
    <g id="Page-1" stroke="none" stroke-width="1" fill="none" fill-rule="evenodd">
        <g id="logo">
            <path d="M29.4,0 C32.5,0 35,2.5 35,5.6 L35,29.4 C35,32.5 32.5,35 29.4,35 L5.6,35 C2.5,35 0,32.5 0,29.4 L0,5.6 C0,2.5 2.5,0 5.6,0" id="Shape" fill="#535353"></path>
            <path d="M9,9 C10.2,7.8 12.1,7.8 13.2,9 L20,15.8 L21.3,14.5 L14.5,7.7 C12.6,5.8 9.6,5.8 7.7,7.7 C5.8,9.6 5.8,12.6 7.7,14.5 L9,15.9 L10.3,14.6 L9,13.2 C7.8,12 7.8,10.1 9,9" id="Shape" fill="#FFFFFF"></path>
            <path d="M26,26 C24.8,27.2 22.9,27.2 21.8,26 L15,19.2 L13.7,20.5 L20.5,27.3 C22.4,29.2 25.4,29.2 27.3,27.3 C29.2,25.4 29.2,22.4 27.3,20.5 L26,19.1 L24.7,20.4 L26.1,21.8 C27.2,23 27.2,24.9 26,26" id="Shape" fill="#FFFFFF"></path>
            <path d="M26,9 C27.2,10.2 27.2,12.1 26,13.2 L19.2,20 L20.5,21.3 L27.3,14.5 C29.2,12.6 29.2,9.6 27.3,7.7 C25.4,5.8 22.4,5.8 20.5,7.7 L19.1,9 L20.4,10.3 L21.8,9 C23,7.8 24.9,7.8 26,9" id="Shape" fill="#FFFFFF"></path>
            <path d="M9,26 C7.8,24.8 7.8,22.9 9,21.8 L15.8,15 L14.5,13.7 L7.7,20.5 C5.8,22.4 5.8,25.4 7.7,27.3 C9.6,29.2 12.6,29.2 14.5,27.3 L15.9,25.9 L14.6,24.6 L13.2,26 C12,27.2 10.1,27.2 9,26" id="Shape" fill="#FFFFFF"></path>
            <g id="Group" transform="translate(53.000000, 3.000000)" fill="#FFFFFF">
                <path d="M2.1,16.4 L2.1,26.2 L0.1,26.2 L0.1,2.1 L8.3,2.1 C9.6,2.1 10.8,2.3 11.8,2.6 C12.8,2.9 13.7,3.4 14.3,4.1 C15,4.7 15.5,5.5 15.9,6.4 C16.3,7.3 16.4,8.3 16.4,9.3 C16.4,10.4 16.2,11.4 15.9,12.3 C15.6,13.2 15,13.9 14.4,14.5 C13.8,15.1 12.9,15.6 11.9,15.9 C10.9,16.2 9.7,16.4 8.4,16.4 L2.1,16.4 L2.1,16.4 L2.1,16.4 Z M2.1,14.7 L8.3,14.7 C9.4,14.7 10.3,14.6 11.1,14.3 C11.9,14 12.5,13.7 13,13.2 C13.5,12.7 13.8,12.2 14.1,11.5 C14.4,10.8 14.4,10.1 14.4,9.4 C14.4,8.7 14.3,8 14.1,7.3 C13.8,6.5 13.4,6 13,5.5 C12.5,5 11.9,4.6 11.1,4.3 C10.3,4 9.4,3.9 8.3,3.9 L2.1,3.9 L2.1,14.7 L2.1,14.7 L2.1,14.7 Z" id="Shape"></path>
                <polygon id="Shape" points="22.7 26.2 20.7 26.2 20.7 0.8 22.7 0.8"></polygon>
                <path d="M35.1,26.6 C33.9,26.6 32.8,26.4 31.9,25.9 C30.9,25.5 30.1,24.9 29.4,24.1 C28.7,23.3 28.1,22.4 27.7,21.3 C27.3,20.2 27,19.1 27,17.8 L27,17.1 C27,15.7 27.2,14.5 27.6,13.3 C28,12.2 28.6,11.2 29.3,10.4 C30,9.6 30.8,9 31.7,8.6 C32.6,8.2 33.6,8 34.6,8 C35.7,8 36.8,8.2 37.6,8.6 C38.5,9 39.2,9.6 39.8,10.3 C40.4,11 40.9,11.9 41.2,12.9 C41.5,13.9 41.7,15 41.7,16.2 L41.7,17.4 L29,17.4 L29,17.8 C29,18.8 29.1,19.7 29.4,20.6 C29.7,21.5 30.1,22.2 30.7,22.9 C31.2,23.5 31.9,24 32.6,24.4 C33.4,24.8 34.2,25 35.1,25 C36.2,25 37.1,24.8 37.9,24.4 C38.7,24 39.5,23.4 40.1,22.5 L41.3,23.4 C41,23.8 40.7,24.2 40.3,24.6 C39.9,25 39.5,25.3 38.9,25.6 C38.3,25.9 37.8,26.1 37.1,26.3 C36.4,26.5 35.9,26.6 35.1,26.6 L35.1,26.6 L35.1,26.6 Z M34.7,9.6 C33.9,9.6 33.2,9.7 32.6,10 C32,10.3 31.4,10.7 30.9,11.2 C30.4,11.7 30,12.4 29.7,13.1 C29.4,13.8 29.2,14.7 29.1,15.6 L39.9,15.6 L39.9,15.4 C39.9,14.6 39.8,13.9 39.5,13.2 C39.3,12.5 39,11.9 38.5,11.3 C38.1,10.8 37.5,10.3 36.9,10 C36.3,9.8 35.6,9.6 34.7,9.6 L34.7,9.6 L34.7,9.6 Z" id="Shape"></path>
                <path d="M45.6,3.1 C45.6,2.7 45.7,2.4 46,2.1 C46.2,1.8 46.6,1.7 47,1.7 C47.4,1.7 47.8,1.8 48,2.1 C48.2,2.4 48.4,2.7 48.4,3.1 C48.4,3.5 48.2,3.8 48,4 C47.8,4.3 47.4,4.4 47,4.4 C46.6,4.4 46.2,4.3 46,4 C45.8,3.7 45.6,3.5 45.6,3.1 L45.6,3.1 L45.6,3.1 Z M47.9,26.2 L45.9,26.2 L45.9,8.2 L47.9,8.2 L47.9,26.2 L47.9,26.2 L47.9,26.2 Z" id="Shape"></path>
                <path d="M52.2,17 C52.2,15.7 52.4,14.5 52.8,13.4 C53.2,12.3 53.7,11.3 54.4,10.5 C55.1,9.7 55.9,9.1 56.9,8.6 C57.9,8.1 59,7.9 60.2,7.9 C61.4,7.9 62.5,8.1 63.5,8.6 C64.5,9.1 65.3,9.7 66,10.5 C66.7,11.3 67.2,12.3 67.6,13.4 C68,14.5 68.2,15.7 68.2,17 L68.2,17.5 C68.2,18.8 68,20 67.6,21.1 C67.2,22.2 66.7,23.2 66,24 C65.3,24.8 64.5,25.4 63.5,25.9 C62.5,26.3 61.4,26.6 60.2,26.6 C59,26.6 57.9,26.4 56.9,25.9 C55.9,25.5 55.1,24.8 54.4,24 C53.7,23.2 53.2,22.2 52.8,21.1 C52.4,20 52.2,18.8 52.2,17.5 L52.2,17 L52.2,17 L52.2,17 Z M54.2,17.6 C54.2,18.6 54.3,19.5 54.6,20.4 C54.9,21.3 55.3,22.1 55.8,22.7 C56.3,23.4 56.9,23.9 57.7,24.3 C58.5,24.7 59.3,24.9 60.3,24.9 C61.3,24.9 62.1,24.7 62.9,24.3 C63.6,23.9 64.3,23.4 64.8,22.7 C65.3,22 65.7,21.3 66,20.4 C66.3,19.5 66.4,18.6 66.4,17.6 L66.4,17 C66.4,16 66.3,15.1 66,14.2 C65.7,13.3 65.3,12.5 64.8,11.9 C64.3,11.2 63.7,10.7 62.9,10.3 C62.1,9.9 61.3,9.7 60.3,9.7 C59.3,9.7 58.5,9.9 57.7,10.3 C57,10.7 56.3,11.2 55.8,11.9 C55.3,12.6 54.9,13.4 54.6,14.2 C54.3,15.1 54.2,16 54.2,17 L54.2,17.6 L54.2,17.6 L54.2,17.6 Z" id="Shape"></path>
            </g>
        </g>
    </g>
</svg>