<svg xmlns="http://www.w3.org/2000/svg" viewBox="0 0 122 35">
    <g fill="none" fill-rule="evenodd">
        <path fill="#1565c0" d="M29.4 0C32.5 0 35 2.5 35 5.6v23.8c0 3.1-2.5 5.6-5.6 5.6H5.6C2.5 35 0 32.5 0 29.4V5.6C0 2.5 2.5 0 5.6 0"/>
        <g fill="#FFF">
            <path d="M9 9c1.2-1.2 3.1-1.2 4.2 0l6.8 6.8 1.3-1.3-6.8-6.8c-1.9-1.9-4.9-1.9-6.8 0-1.9 1.9-1.9 4.9 0 6.8L9 15.9l1.3-1.3L9 13.2C7.8 12 7.8 10.1 9 9M26 26c-1.2 1.2-3.1 1.2-4.2 0L15 19.2l-1.3 1.3 6.8 6.8c1.9 1.9 4.9 1.9 6.8 0 1.9-1.9 1.9-4.9 0-6.8L26 19.1l-1.3 1.3 1.4 1.4c1.1 1.2 1.1 3.1-.1 4.2"/>
            <path d="M26 9c1.2 1.2 1.2 3.1 0 4.2L19.2 20l1.3 1.3 6.8-6.8c1.9-1.9 1.9-4.9 0-6.8-1.9-1.9-4.9-1.9-6.8 0L19.1 9l1.3 1.3L21.8 9C23 7.8 24.9 7.8 26 9M9 26c-1.2-1.2-1.2-3.1 0-4.2l6.8-6.8-1.3-1.3-6.8 6.8c-1.9 1.9-1.9 4.9 0 6.8 1.9 1.9 4.9 1.9 6.8 0l1.4-1.4-1.3-1.3-1.4 1.4c-1.2 1.2-3.1 1.2-4.2 0"/>
        </g>
        <path fill="#535353" d="M55.1 19.4v9.8h-2V5.1h8.2c1.3 0 2.5.2 3.5.5s1.9.8 2.5 1.5c.7.6 1.2 1.4 1.6 2.3.4.9.5 1.9.5 2.9 0 1.1-.2 2.1-.5 3-.3.9-.9 1.6-1.5 2.2-.6.6-1.5 1.1-2.5 1.4-1 .3-2.2.5-3.5.5h-6.3zm0-1.7h6.2c1.1 0 2-.1 2.8-.4.8-.3 1.4-.6 1.9-1.1.5-.5.8-1 1.1-1.7.3-.7.3-1.4.3-2.1 0-.7-.1-1.4-.3-2.1-.3-.8-.7-1.3-1.1-1.8-.5-.5-1.1-.9-1.9-1.2-.8-.3-1.7-.4-2.8-.4h-6.2v10.8zM75.7 29.2h-2V3.8h2M88.1 29.6c-1.2 0-2.3-.2-3.2-.7-1-.4-1.8-1-2.5-1.8s-1.3-1.7-1.7-2.8c-.4-1.1-.7-2.2-.7-3.5v-.7c0-1.4.2-2.6.6-3.8.4-1.1 1-2.1 1.7-2.9.7-.8 1.5-1.4 2.4-1.8.9-.4 1.9-.6 2.9-.6 1.1 0 2.2.2 3 .6.9.4 1.6 1 2.2 1.7.6.7 1.1 1.6 1.4 2.6.3 1 .5 2.1.5 3.3v1.2H82v.4c0 1 .1 1.9.4 2.8.3.9.7 1.6 1.3 2.3.5.6 1.2 1.1 1.9 1.5.8.4 1.6.6 2.5.6 1.1 0 2-.2 2.8-.6.8-.4 1.6-1 2.2-1.9l1.2.9c-.3.4-.6.8-1 1.2-.4.4-.8.7-1.4 1-.6.3-1.1.5-1.8.7-.7.2-1.2.3-2 .3zm-.4-17c-.8 0-1.5.1-2.1.4-.6.3-1.2.7-1.7 1.2s-.9 1.2-1.2 1.9c-.3.7-.5 1.6-.6 2.5h10.8v-.2c0-.8-.1-1.5-.4-2.2-.2-.7-.5-1.3-1-1.9-.4-.5-1-1-1.6-1.3-.6-.2-1.3-.4-2.2-.4zM98.6 6.1c0-.4.1-.7.4-1 .2-.3.6-.4 1-.4s.8.1 1 .4c.2.3.4.6.4 1s-.2.7-.4.9c-.2.3-.6.4-1 .4s-.8-.1-1-.4c-.2-.3-.4-.5-.4-.9zm2.3 23.1h-2v-18h2v18zM105.2 20c0-1.3.2-2.5.6-3.6.4-1.1.9-2.1 1.6-2.9.7-.8 1.5-1.4 2.5-1.9s2.1-.7 3.3-.7c1.2 0 2.3.2 3.3.7 1 .5 1.8 1.1 2.5 1.9.7.8 1.2 1.8 1.6 2.9.4 1.1.6 2.3.6 3.6v.5c0 1.3-.2 2.5-.6 3.6-.4 1.1-.9 2.1-1.6 2.9-.7.8-1.5 1.4-2.5 1.9-1 .4-2.1.7-3.3.7-1.2 0-2.3-.2-3.3-.7-1-.4-1.8-1.1-2.5-1.9-.7-.8-1.2-1.8-1.6-2.9-.4-1.1-.6-2.3-.6-3.6V20zm2 .6c0 1 .1 1.9.4 2.8.3.9.7 1.7 1.2 2.3.5.7 1.1 1.2 1.9 1.6.8.4 1.6.6 2.6.6s1.8-.2 2.6-.6c.7-.4 1.4-.9 1.9-1.6.5-.7.9-1.4 1.2-2.3.3-.9.4-1.8.4-2.8V20c0-1-.1-1.9-.4-2.8-.3-.9-.7-1.7-1.2-2.3-.5-.7-1.1-1.2-1.9-1.6-.8-.4-1.6-.6-2.6-.6s-1.8.2-2.6.6c-.7.4-1.4.9-1.9 1.6-.5.7-.9 1.5-1.2 2.3-.3.9-.4 1.8-.4 2.8v.6z"/>
    </g>
</svg>