<?xml version="1.0" encoding="UTF-8" standalone="no"?>
<svg width="351px" height="210px" viewBox="0 0 351 210" version="1.1" xmlns="http://www.w3.org/2000/svg" xmlns:xlink="http://www.w3.org/1999/xlink">
    <!-- Generator: Sketch 3.8.3 (29802) - http://www.bohemiancoding.com/sketch -->
    <title>Group 13</title>
    <desc>Created with Sketch.</desc>
    <defs></defs>
    <g id="Page-1" stroke="none" stroke-width="1" fill="none" fill-rule="evenodd">
        <g id="Group-13">
            <path d="M111.5991,129.26 C106.6761,127.635 102.1511,126.339 99.0881,125.511 C96.9301,124.928 95.5991,123.044 95.0021,120.885 C94.2351,118.11 94.0051,114.616 94.0051,114.616 C99.7091,107.955 103.9401,99.953 105.4011,89.469 C111.1431,87.677 112.2921,80.416 112.2921,75.889 C112.2921,71.363 111.5051,68.915 109.9001,68.156 C108.4971,67.494 107.1931,67.991 106.3411,68.479 C107.2311,59.231 108.5151,39.955 104.6561,32.806 C100.5131,25.131 95.4801,22.067 85.8811,24.575 C79.5861,21.111 75.3001,16.737 64.2701,19.856 C56.6071,22.023 48.2191,25.957 43.7991,31.861 C38.8401,38.487 40.0301,59.504 40.8491,68.908 C40.3041,68.475 38.5211,67.246 36.5921,68.156 C34.9871,68.915 34.2001,71.363 34.2001,75.889 C34.2001,80.416 35.3491,87.677 41.0911,89.469 C42.3771,100.311 46.5391,107.982 52.1271,114.382 C52.1271,114.382 51.9891,117.66 51.3761,120.775 C50.9331,123.023 49.5211,124.953 47.3191,125.57 C38.2951,128.097 16.9801,134.666 9.9501,142.083 C0.9761,151.549 0.2501,187.198 0.2501,187.198 L69.4041,187.198 C72.2371,171.853 77.2121,153.454 85.5561,144.651 C91.1401,138.76 100.8421,133.606 111.5991,129.26" id="Fill-1" fill="#FF5722"></path>
            <path d="M340.8401,148.2778 C337.7781,145.0468 331.6791,141.5268 324.9701,138.2818 C316.1851,133.9278 306.3661,130.0738 301.1361,128.1108 C299.1351,127.3598 297.8661,125.5178 297.5121,123.4048 C297.0721,120.7828 296.5811,116.8958 296.1951,113.6218 C309.4441,113.0828 320.4021,111.7728 324.9581,110.0338 C325.8591,109.6908 326.3141,108.8628 325.9131,107.9858 C323.4201,102.5358 316.9401,84.6108 316.1261,75.2498 C314.1251,52.2738 314.2081,11.1568 282.7911,21.4728 C282.7911,21.4728 262.8411,8.7018 246.6371,30.0678 C235.2371,45.0998 238.0141,64.9218 237.5581,75.9748 C237.2341,83.8358 230.8141,101.9878 228.1121,106.6908 C227.5371,107.6918 227.7331,108.7038 228.8161,109.0978 C233.7071,110.8758 244.7181,112.2538 257.6611,113.0738 C257.2991,116.3598 256.7911,120.4378 256.2141,123.4048 C255.8051,125.5068 254.5911,127.3598 252.5891,128.1108 C250.3911,128.9358 247.3601,130.1088 243.9591,131.4978 C253.6851,135.7508 260.8221,140.1438 265.0931,144.6558 C273.4411,153.4598 278.3721,171.8518 281.1621,187.1988 L350.2501,187.1988 C350.2501,187.1988 349.8141,157.7438 340.8401,148.2778" id="Fill-3" fill="#FF8A65"></path>
            <path d="M208.0168,132.9747 C204.7998,132.0947 202.6348,129.3537 201.9098,126.0927 C201.2708,123.2097 200.9308,119.9047 200.9308,119.9047 C208.5708,111.3537 214.2388,101.0247 216.1598,87.3767 C223.4658,85.1197 224.9268,75.9797 224.9268,70.2807 C224.9268,64.5837 223.9258,61.5007 221.8848,60.5457 C220.8998,60.0857 219.9388,60.0897 219.0838,60.2717 C219.8178,48.4017 220.5498,24.8827 215.6128,16.0447 C210.2148,6.3827 203.0358,3.8777 190.5288,7.0357 C182.3258,2.6747 176.7418,-1.6393 162.3698,2.2877 C152.3838,5.0157 141.4548,9.4697 135.6958,16.9027 C129.4828,24.9227 130.6798,48.3137 131.7298,60.3287 C130.8048,60.0757 129.7178,60.0307 128.6158,60.5457 C126.5738,61.5007 125.5728,64.5837 125.5728,70.2807 C125.5728,75.9797 127.0338,85.1197 134.3398,87.3767 C136.6848,106.9257 146.4448,118.3647 158.4578,128.4987 C161.6318,131.1777 167.3488,132.5837 173.2988,132.8487 C173.8388,133.8157 173.8388,134.9647 171.7038,135.6707 C168.1328,136.8517 156.9648,138.5227 144.9288,132.2467 C144.8288,132.1947 144.7578,132.1467 144.6598,132.0947 C135.6728,134.5107 104.6348,143.4137 94.9718,153.6097 C83.6758,165.5257 79.2818,209.9997 79.2818,209.9997 L271.2178,209.9997 C271.2178,209.9997 266.9748,165.5257 255.6788,153.6097 C246.9698,144.4197 220.0408,136.2637 208.0168,132.9747" id="Fill-6" fill="#D84314"></path>
        </g>
    </g>
</svg>