<?xml version="1.0" encoding="UTF-8" standalone="no"?>
<svg width="250px" height="150px" viewBox="0 0 250 150" version="1.1" xmlns="http://www.w3.org/2000/svg" xmlns:xlink="http://www.w3.org/1999/xlink">
    <!-- Generator: Sketch 3.8.3 (29802) - http://www.bohemiancoding.com/sketch -->
    <title>Group</title>
    <desc>Created with Sketch.</desc>
    <defs></defs>
    <g id="Page-1" stroke="none" stroke-width="1" fill="none" fill-rule="evenodd">
        <g id="Group">
            <path d="M79.5,91.8 C76,90.6 72.8,89.7 70.6,89.1 C69.1,88.7 68.1,87.3 67.7,85.8 C67.2,83.8 67,81.3 67,81.3 C71.1,76.5 74.1,70.8 75.1,63.3 C79.2,62 80,56.8 80,53.6 C80,50.4 79.4,48.6 78.3,48.1 C77.3,47.6 76.4,48 75.8,48.3 C76.4,41.7 77.4,27.9 74.6,22.8 C71.6,17.3 68,15.1 61.2,16.9 C56.7,14.4 53.6,11.3 45.8,13.5 C40.3,15 34.3,17.9 31.2,22.1 C27.6,27 28.4,42 29,48.7 C28.6,48.4 27.3,47.5 26,48.2 C24.9,48.7 24.3,50.5 24.3,53.7 C24.3,56.9 25.1,62.1 29.2,63.4 C30.1,71.1 33.1,76.6 37.1,81.2 C37.1,81.2 37,83.5 36.6,85.8 C36.3,87.4 35.3,88.8 33.7,89.2 C27.2,91 12,95.7 6.9,101 C0.5,107.7 0,133.2 0,133.2 L49.4,133.2 C51.4,122.2 55,109.1 60.9,102.8 C64.9,98.6 71.9,94.9 79.5,91.8" id="Shape" fill="#FF5722"></path>
            <path d="M243.3,105.4 C241.1,103.1 236.8,100.6 232,98.3 C225.7,95.2 218.7,92.4 215,91 C213.6,90.5 212.7,89.1 212.4,87.6 C212.1,85.7 211.7,82.9 211.5,80.6 C221,80.2 228.8,79.3 232,78 C232.6,77.8 233,77.2 232.7,76.5 C230.9,72.6 226.3,59.8 225.7,53.1 C224.3,36.7 224.3,7.3 201.9,14.7 C201.9,14.7 187.6,5.6 176.1,20.8 C168,31.5 169.9,45.7 169.6,53.6 C169.4,59.2 164.8,72.2 162.9,75.5 C162.5,76.2 162.6,76.9 163.4,77.2 C166.9,78.5 174.8,79.5 184,80 C183.7,82.3 183.4,85.3 183,87.4 C182.7,88.9 181.8,90.2 180.4,90.8 C178.8,91.4 176.7,92.2 174.2,93.2 C181.1,96.2 186.2,99.4 189.3,102.6 C195.3,108.9 198.8,122 200.8,133 L250,133 C250,133.2 249.7,112.2 243.3,105.4" id="Shape" fill="#FF8965"></path>
            <path d="M148.4,94.5 C146.1,93.9 144.6,91.9 144,89.6 C143.5,87.5 143.3,85.2 143.3,85.2 C148.8,79.1 152.8,71.7 154.2,62 C159.4,60.4 160.5,53.9 160.5,49.8 C160.5,45.7 159.8,43.5 158.3,42.8 C157.6,42.5 156.9,42.5 156.3,42.6 C156.8,34.1 157.3,17.3 153.8,11 C149.9,4.1 144.8,2.3 135.9,4.6 C130,1.5 126.1,-1.6 115.8,1.2 C108.7,3.1 100.9,6.3 96.7,11.6 C92.3,17.3 93.1,34 93.9,42.6 C93.2,42.4 92.5,42.4 91.7,42.8 C90.2,43.5 89.5,45.7 89.5,49.8 C89.5,53.9 90.5,60.4 95.8,62 C97.5,76 104.4,84.1 113,91.4 C115.3,93.3 119.3,94.3 123.6,94.5 C124,95.2 124,96 122.5,96.5 C119.9,97.3 112,98.5 103.4,94.1 C103.3,94.1 103.3,94 103.2,94 C96.8,95.7 74.6,102.1 67.7,109.4 C59.6,117.9 56.5,149.7 56.5,149.7 L193.6,149.7 C193.6,149.7 190.6,117.9 182.5,109.4 C176.2,102.6 157,96.8 148.4,94.5" id="Shape" fill="#D74315"></path>
        </g>
    </g>
</svg>