<?xml version="1.0" encoding="UTF-8" standalone="no"?>
<svg width="80px" height="99px" viewBox="0 0 80 99" version="1.1" xmlns="http://www.w3.org/2000/svg" xmlns:xlink="http://www.w3.org/1999/xlink">
    <!-- Generator: Sketch 3.8.3 (29802) - http://www.bohemiancoding.com/sketch -->
    <title>Artboard 1</title>
    <desc>Created with Sketch.</desc>
    <defs></defs>
    <g id="Page-1" stroke="none" stroke-width="1" fill="none" fill-rule="evenodd">
        <g id="Artboard-1" fill="#2196F3">
            <path d="M68.7908,61.546 L68.7908,61.398 C67.2308,58.254 66.5188,53.338 67.1148,49.354 L67.1148,49.206 L67.1188,49.206 C67.7428,43.99 71.1028,38.658 73.7908,36.722 C73.8188,36.698 73.8588,36.67 73.8948,36.642 L73.8948,36.63 L73.8988,36.63 C74.4948,35.974 76.1948,34.61 77.3388,33.786 C73.1068,27.558 66.1748,24.194 59.1148,24.09 C51.9988,23.49 44.6108,28.594 40.6268,28.478 C36.7748,28.594 30.9548,23.99 24.8108,24.278 L24.7508,24.27 C24.6108,24.27 23.5068,24.33 23.5068,24.33 C15.3628,24.53 8.1428,29.33 4.0468,36.606 L4.0468,36.63 L4.0188,36.63 L4.0188,36.606 C2.3988,39.226 0.4548,45.338 0.1628,49.206 L0.1628,49.414 C-0.2292,51.866 0.1508,58.406 0.5908,61.55 C0.6108,61.606 0.6148,61.662 0.6188,61.71 L0.6268,61.702 C0.9708,64.838 2.5628,70.894 3.7588,73.858 L3.7588,73.886 L3.7508,73.886 C4.8988,77.158 8.0988,83.294 10.1668,86.434 L10.1668,86.458 L10.1868,86.458 C14.3588,92.45 19.2748,99.186 25.7508,98.894 C32.0108,98.658 34.3148,94.738 41.8508,94.798 C49.3828,94.738 51.4668,98.706 58.0708,98.738 C64.7988,98.446 68.9708,92.458 73.1468,86.458 C75.1908,83.366 78.3988,77.418 79.5308,73.886 L79.5468,73.886 C79.6748,73.51 79.8668,72.938 79.9988,72.518 C75.5748,71.266 70.6068,65.434 68.8708,61.55" id="Fill-5"></path>
            <path d="M54.3576,15.7608 C57.7136,11.5728 60.1576,5.8088 59.5256,0.0008 C54.5136,0.1848 48.5456,3.3048 44.9896,7.5208 C41.7856,11.1528 39.0056,17.1408 39.8016,22.7768 C45.2496,23.1368 50.8536,19.9768 54.3576,15.7608" id="Fill-1"></path>
        </g>
    </g>
</svg>