<?xml version="1.0" encoding="UTF-8" standalone="no"?>
<svg width="80px" height="96px" viewBox="0 0 80 96" version="1.1" xmlns="http://www.w3.org/2000/svg" xmlns:xlink="http://www.w3.org/1999/xlink">
    <!-- Generator: Sketch 3.8.3 (29802) - http://www.bohemiancoding.com/sketch -->
    <title>Artboard 1</title>
    <desc>Created with Sketch.</desc>
    <defs></defs>
    <g id="Page-1" stroke="none" stroke-width="1" fill="none" fill-rule="evenodd">
        <g id="Artboard-1" fill="#2196F3">
            <path d="M17.0612,29.6864 L13.8892,29.6864 L13.8892,51.1784 L13.9412,51.1784 L13.9412,73.7264 C13.9412,75.4464 15.3372,76.8464 17.0612,76.8464 L23.7292,76.8464 L23.7292,90.7184 C23.7292,93.7864 26.2172,96.2704 29.2812,96.2704 C32.3492,96.2704 34.8372,93.7864 34.8372,90.7184 L34.8372,76.8464 L45.1652,76.8464 L45.1652,90.7184 C45.1652,93.7864 47.6492,96.2704 50.7172,96.2704 C53.7852,96.2704 56.2692,93.7864 56.2692,90.7184 L56.2692,76.8464 L62.9372,76.8464 C64.6612,76.8464 66.0612,75.4464 66.0612,73.7264 L66.0612,51.1784 L66.1092,51.1784 L66.1092,29.6864 L62.9372,29.6864 L17.0612,29.6864 L17.0612,29.6864 Z" id="Fill-1"></path>
            <path d="M74.446,27.91 C71.378,27.91 68.894,30.398 68.894,33.462 L68.894,58.418 C68.894,61.486 71.378,63.974 74.446,63.974 C77.514,63.974 79.998,61.486 79.998,58.418 L79.998,33.462 C79.998,30.398 77.514,27.91 74.446,27.91" id="Fill-3"></path>
            <path d="M5.5532,27.91 C2.4852,27.91 0.0012,30.398 0.0012,33.462 L0.0012,58.418 C0.0012,61.486 2.4852,63.974 5.5532,63.974 C8.6212,63.974 11.1052,61.486 11.1052,58.418 L11.1052,33.462 C11.1052,30.398 8.6212,27.91 5.5532,27.91" id="Fill-5"></path>
            <path d="M52.5884,7.0424 L57.0564,0.7344 C57.1524,0.6024 57.0164,0.3504 56.7604,0.1704 C56.5044,-0.0136 56.2204,-0.0536 56.1284,0.0744 L51.5164,6.5824 C48.4004,5.3624 44.6124,4.6024 40.0004,4.5904 C35.3604,4.5744 31.5564,5.3104 28.4324,6.5144 L23.8684,0.0744 C23.7764,-0.0536 23.4924,-0.0136 23.2404,0.1704 C22.9804,0.3504 22.8484,0.6024 22.9404,0.7344 L27.3564,6.9664 C14.4844,12.6544 14.1084,26.6104 14.1084,26.6104 L65.8924,26.6104 C65.8924,26.6104 65.3644,12.7784 52.5884,7.0424 M28.6364,18.4464 C26.9124,18.4464 25.5164,17.0504 25.5164,15.3304 C25.5164,13.6104 26.9124,12.2144 28.6364,12.2144 C30.3564,12.2144 31.7524,13.6104 31.7524,15.3304 C31.7524,17.0504 30.3564,18.4464 28.6364,18.4464 M51.3644,18.4464 C49.6444,18.4464 48.2484,17.0504 48.2484,15.3304 C48.2484,13.6104 49.6444,12.2144 51.3644,12.2144 C53.0844,12.2144 54.4804,13.6104 54.4804,15.3304 C54.4804,17.0504 53.0844,18.4464 51.3644,18.4464" id="Fill-7"></path>
        </g>
    </g>
</svg>