<?xml version="1.0" encoding="utf-8"?>
<!-- Generator: Adobe Illustrator 20.0.0, SVG Export Plug-In . SVG Version: 6.00 Build 0)  -->
<svg version="1.2" baseProfile="tiny" id="Layer_1" xmlns="http://www.w3.org/2000/svg" xmlns:xlink="http://www.w3.org/1999/xlink"
	 x="0px" y="0px" width="20px" height="20px" viewBox="0 0 20 20" xml:space="preserve">
<path d="M7.4,12.6c-2.8,0-5.1-2.3-5.1-5.1c0-2.8,2.3-5.1,5.1-5.1s5.1,2.3,5.1,5.1C12.6,10.3,10.3,12.6,7.4,12.6 M14.3,12.6h-0.9
	l-0.3-0.3c1.1-1.3,1.8-3,1.8-4.8c0-4.1-3.3-7.4-7.4-7.4S0,3.3,0,7.4s3.3,7.4,7.4,7.4c1.8,0,3.5-0.7,4.8-1.8l0.3,0.3v0.9l5.7,5.7
	l1.7-1.7L14.3,12.6z"/>
</svg>
